<mxfile host="app.diagrams.net" modified="2021-05-03T19:29:30.230Z" agent="5.0 (Windows NT 10.0; Win64; x64) AppleWebKit/537.36 (KHTML, like Gecko) Chrome/87.0.4280.141 Safari/537.36 OPR/73.0.3856.438" etag="p3qiigZj6-B4uqCq8C8c" version="14.6.9" type="github">
  <diagram id="EXcnkiaXTHH_2BaCAKTx" name="Page-1">
    <mxGraphModel dx="1381" dy="833" grid="1" gridSize="10" guides="1" tooltips="1" connect="1" arrows="1" fold="1" page="1" pageScale="1" pageWidth="827" pageHeight="1169" math="0" shadow="0">
      <root>
        <mxCell id="0" />
        <mxCell id="1" parent="0" />
        <mxCell id="KCgQpT4u9DBr67l60TVU-3" style="edgeStyle=orthogonalEdgeStyle;rounded=0;orthogonalLoop=1;jettySize=auto;html=1;" edge="1" parent="1" source="KCgQpT4u9DBr67l60TVU-1" target="KCgQpT4u9DBr67l60TVU-2">
          <mxGeometry relative="1" as="geometry" />
        </mxCell>
        <mxCell id="KCgQpT4u9DBr67l60TVU-1" value="start" style="ellipse;whiteSpace=wrap;html=1;" vertex="1" parent="1">
          <mxGeometry x="354" y="20" width="120" height="80" as="geometry" />
        </mxCell>
        <mxCell id="KCgQpT4u9DBr67l60TVU-5" style="edgeStyle=orthogonalEdgeStyle;rounded=0;orthogonalLoop=1;jettySize=auto;html=1;" edge="1" parent="1" source="KCgQpT4u9DBr67l60TVU-2" target="KCgQpT4u9DBr67l60TVU-4">
          <mxGeometry relative="1" as="geometry" />
        </mxCell>
        <mxCell id="KCgQpT4u9DBr67l60TVU-2" value="input: a" style="shape=parallelogram;perimeter=parallelogramPerimeter;whiteSpace=wrap;html=1;fixedSize=1;" vertex="1" parent="1">
          <mxGeometry x="354" y="140" width="120" height="60" as="geometry" />
        </mxCell>
        <mxCell id="KCgQpT4u9DBr67l60TVU-7" style="edgeStyle=orthogonalEdgeStyle;rounded=0;orthogonalLoop=1;jettySize=auto;html=1;" edge="1" parent="1" source="KCgQpT4u9DBr67l60TVU-4" target="KCgQpT4u9DBr67l60TVU-6">
          <mxGeometry relative="1" as="geometry" />
        </mxCell>
        <mxCell id="KCgQpT4u9DBr67l60TVU-4" value="input: b" style="shape=parallelogram;perimeter=parallelogramPerimeter;whiteSpace=wrap;html=1;fixedSize=1;" vertex="1" parent="1">
          <mxGeometry x="354" y="240" width="120" height="60" as="geometry" />
        </mxCell>
        <mxCell id="KCgQpT4u9DBr67l60TVU-9" style="edgeStyle=orthogonalEdgeStyle;rounded=0;orthogonalLoop=1;jettySize=auto;html=1;" edge="1" parent="1" source="KCgQpT4u9DBr67l60TVU-6" target="KCgQpT4u9DBr67l60TVU-8">
          <mxGeometry relative="1" as="geometry" />
        </mxCell>
        <mxCell id="KCgQpT4u9DBr67l60TVU-6" value="ax = a" style="rounded=0;whiteSpace=wrap;html=1;" vertex="1" parent="1">
          <mxGeometry x="354" y="340" width="120" height="60" as="geometry" />
        </mxCell>
        <mxCell id="KCgQpT4u9DBr67l60TVU-11" style="edgeStyle=orthogonalEdgeStyle;rounded=0;orthogonalLoop=1;jettySize=auto;html=1;" edge="1" parent="1" source="KCgQpT4u9DBr67l60TVU-8" target="KCgQpT4u9DBr67l60TVU-10">
          <mxGeometry relative="1" as="geometry" />
        </mxCell>
        <mxCell id="KCgQpT4u9DBr67l60TVU-8" value="bx = b" style="rounded=0;whiteSpace=wrap;html=1;" vertex="1" parent="1">
          <mxGeometry x="354" y="440" width="120" height="60" as="geometry" />
        </mxCell>
        <mxCell id="KCgQpT4u9DBr67l60TVU-13" style="edgeStyle=orthogonalEdgeStyle;rounded=0;orthogonalLoop=1;jettySize=auto;html=1;" edge="1" parent="1" source="KCgQpT4u9DBr67l60TVU-10" target="KCgQpT4u9DBr67l60TVU-12">
          <mxGeometry relative="1" as="geometry" />
        </mxCell>
        <mxCell id="KCgQpT4u9DBr67l60TVU-10" value="a = bx" style="rounded=0;whiteSpace=wrap;html=1;" vertex="1" parent="1">
          <mxGeometry x="354" y="540" width="120" height="60" as="geometry" />
        </mxCell>
        <mxCell id="KCgQpT4u9DBr67l60TVU-15" style="edgeStyle=orthogonalEdgeStyle;rounded=0;orthogonalLoop=1;jettySize=auto;html=1;" edge="1" parent="1" source="KCgQpT4u9DBr67l60TVU-12" target="KCgQpT4u9DBr67l60TVU-14">
          <mxGeometry relative="1" as="geometry" />
        </mxCell>
        <mxCell id="KCgQpT4u9DBr67l60TVU-12" value="b = ax" style="rounded=0;whiteSpace=wrap;html=1;" vertex="1" parent="1">
          <mxGeometry x="354" y="640" width="120" height="60" as="geometry" />
        </mxCell>
        <mxCell id="KCgQpT4u9DBr67l60TVU-17" style="edgeStyle=orthogonalEdgeStyle;rounded=0;orthogonalLoop=1;jettySize=auto;html=1;" edge="1" parent="1" source="KCgQpT4u9DBr67l60TVU-14" target="KCgQpT4u9DBr67l60TVU-16">
          <mxGeometry relative="1" as="geometry" />
        </mxCell>
        <mxCell id="KCgQpT4u9DBr67l60TVU-14" value="output: a" style="shape=parallelogram;perimeter=parallelogramPerimeter;whiteSpace=wrap;html=1;fixedSize=1;" vertex="1" parent="1">
          <mxGeometry x="354" y="740" width="120" height="60" as="geometry" />
        </mxCell>
        <mxCell id="KCgQpT4u9DBr67l60TVU-19" style="edgeStyle=orthogonalEdgeStyle;rounded=0;orthogonalLoop=1;jettySize=auto;html=1;" edge="1" parent="1" source="KCgQpT4u9DBr67l60TVU-16" target="KCgQpT4u9DBr67l60TVU-18">
          <mxGeometry relative="1" as="geometry" />
        </mxCell>
        <mxCell id="KCgQpT4u9DBr67l60TVU-16" value="output: b" style="shape=parallelogram;perimeter=parallelogramPerimeter;whiteSpace=wrap;html=1;fixedSize=1;" vertex="1" parent="1">
          <mxGeometry x="354" y="840" width="120" height="60" as="geometry" />
        </mxCell>
        <mxCell id="KCgQpT4u9DBr67l60TVU-18" value="stop" style="ellipse;whiteSpace=wrap;html=1;" vertex="1" parent="1">
          <mxGeometry x="354" y="940" width="120" height="80" as="geometry" />
        </mxCell>
      </root>
    </mxGraphModel>
  </diagram>
</mxfile>
